<mxfile host="app.diagrams.net" modified="2023-05-11T08:30:00.725Z" agent="Mozilla/5.0 (Windows NT 10.0; Win64; x64) AppleWebKit/537.36 (KHTML, like Gecko) Chrome/112.0.0.0 Safari/537.36" version="21.2.3" etag="jTE_GwsAeet6yGfHBLZt" type="github">
  <diagram name="第 1 页" id="DLcD4SEAWD2pbUIVmP67">
    <mxGraphModel>
      <root>
        <mxCell id="0" />
        <mxCell id="1" parent="0" />
      </root>
    </mxGraphModel>
  </diagram>
</mxfile>
